<?xml version="1.0" standalone="no"?>
<!DOCTYPE svg PUBLIC "-//W3C//DTD SVG 20010904//EN"
 "http://www.w3.org/TR/2001/REC-SVG-20010904/DTD/svg10.dtd">
<svg version="1.0" xmlns="http://www.w3.org/2000/svg"
 width="297.000000pt" height="297.000000pt" viewBox="0 0 297.000000 297.000000"
 preserveAspectRatio="xMidYMid meet">
<metadata>
Created by potrace 1.14, written by Peter Selinger 2001-2017
</metadata>
<g transform="translate(0.000000,297.000000) scale(0.100000,-0.100000)"
fill="#000000" stroke="none">
<path d="M1305 2964 c-253 -37 -490 -131 -688 -271 -105 -74 -266 -235 -340
-340 -118 -165 -203 -359 -249 -564 -20 -90 -23 -131 -23 -304 0 -173 3 -214
23 -304 133 -595 575 -1030 1172 -1158 121 -26 449 -26 570 0 300 64 554 201
765 412 211 211 348 465 412 765 26 121 26 449 0 570 -126 590 -552 1028
-1137 1167 -88 21 -135 25 -290 28 -102 2 -198 1 -215 -1z m-488 -1166 c205
-131 377 -238 382 -238 5 0 71 108 146 240 76 132 139 240 140 240 1 0 64
-108 140 -240 75 -132 142 -240 147 -240 5 0 180 110 390 245 210 134 383 243
385 241 2 -1 -94 -242 -212 -534 -118 -292 -215 -536 -215 -541 0 -8 -194 -11
-635 -11 -429 0 -635 3 -635 10 0 6 -95 244 -210 530 -116 286 -213 527 -217
536 -8 21 -50 47 394 -238z"/>
<path d="M1477 1923 c-31 -52 -227 -395 -227 -398 0 -6 225 -148 235 -148 10
0 235 142 235 148 0 6 -221 389 -230 398 -4 5 -10 5 -13 0z"/>
<path d="M704 1482 c96 -237 178 -438 183 -447 7 -13 40 36 148 225 117 205
136 243 124 254 -17 16 -594 385 -614 392 -8 4 58 -173 159 -424z"/>
<path d="M2121 1716 c-167 -107 -308 -199 -314 -205 -7 -7 34 -87 128 -251 76
-132 141 -237 145 -233 4 4 79 188 168 408 88 220 168 417 176 438 9 20 13 37
8 37 -4 0 -144 -87 -311 -194z"/>
<path d="M1097 1263 c-64 -113 -116 -207 -114 -209 4 -4 447 280 447 286 -1 7
-196 130 -206 130 -5 0 -62 -93 -127 -207z"/>
<path d="M1638 1407 c-54 -34 -98 -64 -98 -67 0 -7 443 -290 447 -286 7 7
-232 416 -242 416 -5 -1 -54 -29 -107 -63z"/>
<path d="M1264 1167 l-221 -142 224 -3 c124 -1 323 -1 443 0 l218 3 -196 125
c-107 69 -207 133 -221 142 -26 16 -27 16 -247 -125z"/>
</g>
</svg>
